<?xml version="1.0" encoding="UTF-8"?>
<svg version="1.1" xmlns="http://www.w3.org/2000/svg" width="300" height="80" style="background: transparent;">
<path d="M0 0 C9.99167354 1.43310864 19.50487653 3.22119458 26.05078125 11.74609375 C30.9924383 19.1011182 32.28477246 25.52692726 31.25 34.31640625 C29.91628979 40.89860198 26.32712519 47.27112151 20.921875 51.33984375 C14.418408 55.65042689 7.6062573 58.1107929 -0.29296875 56.99609375 C-8.92621157 54.72095141 -15.01409318 51.64987279 -20.04296875 44.12109375 C-24.08209734 37.18574112 -25.62979257 30.0687982 -23.5703125 22.25390625 C-20.71698921 13.72859213 -17.20458435 8.63986813 -9.29296875 3.99609375 C-8.30296875 3.66609375 -7.31296875 3.33609375 -6.29296875 2.99609375 C-5.88433594 2.46886719 -5.47570312 1.94164062 -5.0546875 1.3984375 C-3.29296875 -0.00390625 -3.29296875 -0.00390625 0 0 Z M-13.29296875 12.99609375 C-17.86164746 18.12508212 -19.12081788 23.2352597 -19.29296875 29.99609375 C-18.63296875 28.67609375 -17.97296875 27.35609375 -17.29296875 25.99609375 C-16.30296875 25.99609375 -15.31296875 25.99609375 -14.29296875 25.99609375 C-12.48801422 24.33459105 -12.48801422 24.33459105 -10.79296875 22.18359375 C-9.63060805 20.78417265 -8.4641199 19.38816659 -7.29296875 17.99609375 C-6.83277344 17.42890625 -6.37257812 16.86171875 -5.8984375 16.27734375 C-3.67669276 14.50427252 -1.91332922 14.49092235 0.89453125 14.30859375 C1.79558594 14.24285156 2.69664062 14.17710938 3.625 14.109375 C4.65560547 14.05330078 4.65560547 14.05330078 5.70703125 13.99609375 C5.37703125 12.67609375 5.04703125 11.35609375 4.70703125 9.99609375 C6.02703125 9.66609375 7.34703125 9.33609375 8.70703125 8.99609375 C9.33203125 10.87109375 9.33203125 10.87109375 9.70703125 12.99609375 C9.04703125 13.65609375 8.38703125 14.31609375 7.70703125 14.99609375 C8.32191406 15.09664062 8.93679688 15.1971875 9.5703125 15.30078125 C12.25848346 15.92673494 14.33389411 16.57051939 16.70703125 17.99609375 C17.98128098 20.50597958 18.5498206 22.76410438 19.07421875 25.5234375 C19.7790179 28.2773749 20.88186092 29.84678115 22.70703125 31.99609375 C24.02703125 31.33609375 25.34703125 30.67609375 26.70703125 29.99609375 C26.5350039 23.24011048 25.2799663 18.117781 20.70703125 12.99609375 C9.60590328 3.89356457 -2.16198699 3.72027562 -13.29296875 12.99609375 Z M6.70703125 9.99609375 C6.37703125 10.65609375 6.04703125 11.31609375 5.70703125 11.99609375 C6.69703125 11.66609375 7.68703125 11.33609375 8.70703125 10.99609375 C8.04703125 10.66609375 7.38703125 10.33609375 6.70703125 9.99609375 Z M-5.21484375 17.52734375 C-5.818125 18.17703125 -6.42140625 18.82671875 -7.04296875 19.49609375 C-7.6565625 20.14578125 -8.27015625 20.79546875 -8.90234375 21.46484375 C-9.36125 21.97015625 -9.82015625 22.47546875 -10.29296875 22.99609375 C-9.63296875 24.31609375 -8.97296875 25.63609375 -8.29296875 26.99609375 C-7.63296875 26.33609375 -6.97296875 25.67609375 -6.29296875 24.99609375 C-6.29296875 24.00609375 -6.29296875 23.01609375 -6.29296875 21.99609375 C-5.63296875 21.99609375 -4.97296875 21.99609375 -4.29296875 21.99609375 C-5.28296875 26.94609375 -6.27296875 31.89609375 -7.29296875 36.99609375 C-6.05546875 36.81046875 -4.81796875 36.62484375 -3.54296875 36.43359375 C-0.42929023 36.02793845 1.67204347 36.23734681 4.70703125 36.99609375 C8.95508686 35.80132811 10.59975568 32.683826 12.70703125 28.99609375 C12.70703125 28.00609375 12.70703125 27.01609375 12.70703125 25.99609375 C13.36703125 25.99609375 14.02703125 25.99609375 14.70703125 25.99609375 C14.70703125 27.64609375 14.70703125 29.29609375 14.70703125 30.99609375 C16.02703125 30.33609375 17.34703125 29.67609375 18.70703125 28.99609375 C18.14036579 27.53120326 17.55298897 26.07431372 16.95703125 24.62109375 C16.6321875 23.80898438 16.30734375 22.996875 15.97265625 22.16015625 C14.51219181 19.66294236 13.36833524 19.01365116 10.70703125 17.99609375 C9.71703125 18.65609375 8.72703125 19.31609375 7.70703125 19.99609375 C5.14453125 19.80859375 5.14453125 19.80859375 2.70703125 18.99609375 C2.04703125 18.00609375 1.38703125 17.01609375 0.70703125 15.99609375 C-3.18111367 15.58066513 -3.18111367 15.58066513 -5.21484375 17.52734375 Z M4.70703125 15.99609375 C4.37703125 16.65609375 4.04703125 17.31609375 3.70703125 17.99609375 C5.35703125 17.99609375 7.00703125 17.99609375 8.70703125 17.99609375 C7.38703125 17.33609375 6.06703125 16.67609375 4.70703125 15.99609375 Z M-13.29296875 26.99609375 C-13.29296875 27.98609375 -13.29296875 28.97609375 -13.29296875 29.99609375 C-14.28296875 30.32609375 -15.27296875 30.65609375 -16.29296875 30.99609375 C-15.30296875 31.32609375 -14.31296875 31.65609375 -13.29296875 31.99609375 C-12.30296875 31.00609375 -11.31296875 30.01609375 -10.29296875 28.99609375 C-11.28296875 28.33609375 -12.27296875 27.67609375 -13.29296875 26.99609375 Z " fill="#FFFFFF" transform="translate(251.29296875,10.00390625)"/>
<path d="M0 0 C0.99 0 1.98 0 3 0 C3.495 3.465 3.495 3.465 4 7 C5.093125 6.79375 6.18625 6.5875 7.3125 6.375 C11 6 11 6 14 8 C15.3125 12.375 15.3125 12.375 14 15 C15.32 15 16.64 15 18 15 C18 12.03 18 9.06 18 6 C20.475 6.495 20.475 6.495 23 7 C23.02687279 8.81242052 23.04633715 10.62495233 23.0625 12.4375 C23.07410156 13.44683594 23.08570313 14.45617187 23.09765625 15.49609375 C23 18 23 18 22 19 C20.55710213 19.09295815 19.10970215 19.11746513 17.66381836 19.11352539 C16.28249977 19.11341209 16.28249977 19.11341209 14.87327576 19.11329651 C13.87224319 19.10813522 12.87121063 19.10297394 11.83984375 19.09765625 C10.82024063 19.0962413 9.80063751 19.09482635 8.75013733 19.09336853 C5.47922893 19.08775097 2.20838787 19.0751955 -1.0625 19.0625 C-3.27408756 19.05748726 -5.48567618 19.05292396 -7.69726562 19.04882812 C-13.13153357 19.03777584 -18.56576197 19.02102063 -24 19 C-24 20.98 -24 22.96 -24 25 C-26.39774745 25.13572155 -28.78775245 25.23436868 -31.1875 25.3125 C-32.19780273 25.3753418 -32.19780273 25.3753418 -33.22851562 25.43945312 C-37.17478845 25.53570368 -38.82222678 25.13912687 -41.96484375 22.6796875 C-44.39983999 19.47353122 -44.52465368 17.93490263 -44 14 C-43.67 13.34 -43.34 12.68 -43 12 C-41.68 12 -40.36 12 -39 12 C-38.67 14.64 -38.34 17.28 -38 20 C-35.03 20.33 -32.06 20.66 -29 21 C-28.67 20.34 -28.34 19.68 -28 19 C-29.11375 18.896875 -30.2275 18.79375 -31.375 18.6875 C-33.169375 18.3471875 -33.169375 18.3471875 -35 18 C-37 15 -37 15 -36.8125 12 C-35.59569378 7.50717703 -35.59569378 7.50717703 -33 6 C-30.24418358 5.70057528 -27.79398019 5.81974321 -25 6 C-24 7 -24 7 -23.90234375 8.84765625 C-23.93489583 10.8984375 -23.96744792 12.94921875 -24 15 C-22.35 15 -20.7 15 -19 15 C-19 12.03 -19 9.06 -19 6 C-17.68 6 -16.36 6 -15 6 C-15 8.97 -15 11.94 -15 15 C-13.35 15 -11.7 15 -10 15 C-10 12.36 -10 9.72 -10 7 C-8.35 6.67 -6.7 6.34 -5 6 C-5 8.97 -5 11.94 -5 15 C-3.68 15 -2.36 15 -1 15 C-1.01160156 14.00097656 -1.02320313 13.00195312 -1.03515625 11.97265625 C-1.04417969 10.68230469 -1.05320313 9.39195313 -1.0625 8.0625 C-1.07410156 6.77472656 -1.08570313 5.48695312 -1.09765625 4.16015625 C-1 1 -1 1 0 0 Z M-32 10 C-32 11.65 -32 13.3 -32 15 C-30.68 15 -29.36 15 -28 15 C-28 13.35 -28 11.7 -28 10 C-29.32 10 -30.64 10 -32 10 Z M6 10 C4.21030974 12.42672567 4.21030974 12.42672567 3 15 C4.98 15 6.96 15 9 15 C9.33 13.35 9.66 11.7 10 10 C8.68 10 7.36 10 6 10 Z " fill="#FFFFFF" transform="translate(169,44)"/>
<path d="M0 0 C6.45782364 2.20771983 12.31621356 6.18349509 16 12 C16 12.66 16 13.32 16 14 C15.34 14 14.68 14 14 14 C14.495 15.485 14.495 15.485 15 17 C16.42182202 21.97133514 17.14727836 28.16862369 15 33 C13.4375 34.8125 13.4375 34.8125 11 36 C8.27937322 35.89578244 5.69797702 35.42825032 3 35 C2.01 35.33 1.02 35.66 0 36 C0 34.35 0 32.7 0 31 C3.75 29.875 3.75 29.875 6 31 C5.40762758 26.14254615 4.20835969 22.33178248 2 18 C1.01 17.67 0.02 17.34 -1 17 C-1.99 17.66 -2.98 18.32 -4 19 C-6.5625 18.8125 -6.5625 18.8125 -9 18 C-9.66 17.01 -10.32 16.02 -11 15 C-14.40364149 15.2917407 -16.06382675 16.04578875 -18.875 18.0625 C-21.12997521 21.17967161 -21.29487023 21.56266353 -20.875 25.125 C-20.09328474 28.88598532 -20.09328474 28.88598532 -19 32 C-20 34 -20 34 -22.3125 35.1875 C-25.92018108 36.27819428 -27.72094582 35.63952709 -31 34 C-31 32.35 -31 30.7 -31 29 C-30.01 29 -29.02 29 -28 29 C-28 27.35 -28 25.7 -28 24 C-27.34 24 -26.68 24 -26 24 C-25.7421875 23.42765625 -25.484375 22.8553125 -25.21875 22.265625 C-22.95320309 18.05403139 -19.93430502 14.71777649 -16 12 C-12.55264154 11.35362029 -9.45845435 11.48973624 -6 12 C-6.66 10.68 -7.32 9.36 -8 8 C-7.34 7.34 -6.68 6.68 -6 6 C-3.875 6.375 -3.875 6.375 -2 7 C-0.875 10.75 -0.875 10.75 -2 13 C-0.948125 13.2475 0.10375 13.495 1.1875 13.75 C4.21265315 14.98588574 4.97053327 15.94639098 6.578125 18.87109375 C7.81517114 21.88905978 8.96005791 24.90892789 10 28 C10.66 28 11.32 28 12 28 C12.99 28 13.98 28 15 28 C13.05617795 19.72403038 11.4428513 13.06194621 4 8.1875 C-2.36065178 4.34874727 -8.82512849 4.26063721 -16 6 C-16.33 3.69 -16.66 1.38 -17 -1 C-12.32985621 -3.3350719 -5.03634206 -0.97292972 0 0 Z M-5 8 C-5.33 8.66 -5.66 9.32 -6 10 C-5.01 9.67 -4.02 9.34 -3 9 C-3.66 8.67 -4.32 8.34 -5 8 Z M-7 14 C-7.33 14.66 -7.66 15.32 -8 16 C-6.35 16 -4.7 16 -3 16 C-4.32 15.34 -5.64 14.68 -7 14 Z M-25 25 C-25 25.99 -25 26.98 -25 28 C-25.99 28.33 -26.98 28.66 -28 29 C-27.01 29.33 -26.02 29.66 -25 30 C-24.01 29.01 -23.02 28.02 -22 27 C-22.99 26.34 -23.98 25.68 -25 25 Z " fill="#FFFFFF" transform="translate(263,12)"/>
<path d="M0 0 C0.99 0 1.98 0 3 0 C3 4.95 3 9.9 3 15 C4.98 14.67 6.96 14.34 9 14 C8.01 13.34 7.02 12.68 6 12 C6.3125 10.125 6.3125 10.125 7 8 C10.71499122 5.52333918 12.60907888 5.45113486 17 6 C19 8.3125 19 8.3125 20 11 C19.67 11.99 19.34 12.98 19 14 C19.99 14.33 20.98 14.66 22 15 C22.103125 14.071875 22.20625 13.14375 22.3125 12.1875 C23 9 23 9 24.1875 7.125 C26.87157413 5.45902295 28.90792244 5.67790859 32 6 C35 8 35 8 35.6875 11.125 C35.8421875 12.548125 35.8421875 12.548125 36 14 C36.99 14.33 37.98 14.66 39 15 C39 10.38 39 5.76 39 1 C40.32 0.67 41.64 0.34 43 0 C44 1 44 1 44.11352539 2.76586914 C44.10828857 3.51473389 44.10305176 4.26359863 44.09765625 5.03515625 C44.09443359 5.84404297 44.09121094 6.65292969 44.08789062 7.48632812 C44.07532227 8.7615332 44.07532227 8.7615332 44.0625 10.0625 C44.05798828 10.91650391 44.05347656 11.77050781 44.04882812 12.65039062 C44.03700373 14.76695663 44.01906769 16.88348685 44 19 C29 19 14 19 -1 19 C-1.02683987 16.02077407 -1.04676037 13.04178705 -1.0625 10.0625 C-1.07087891 9.21236328 -1.07925781 8.36222656 -1.08789062 7.48632812 C-1.09111328 6.67744141 -1.09433594 5.86855469 -1.09765625 5.03515625 C-1.10289307 4.2862915 -1.10812988 3.53742676 -1.11352539 2.76586914 C-1 1 -1 1 0 0 Z M11 10 C11.99 10.99 12.98 11.98 14 13 C14.33 12.01 14.66 11.02 15 10 C13.68 10 12.36 10 11 10 Z M27 10 C27 11.65 27 13.3 27 15 C28.32 15 29.64 15 31 15 C31 13.35 31 11.7 31 10 C29.68 10 28.36 10 27 10 Z " fill="#FFFFFF" transform="translate(67,44)"/>
<path d="M0 0 C1.32 0.33 2.64 0.66 4 1 C4 5.29 4 9.58 4 14 C5.32 14.33 6.64 14.66 8 15 C8 12.69 8 10.38 8 8 C9.32 8 10.64 8 12 8 C12.33 10.31 12.66 12.62 13 15 C13.33 15 13.66 15 14 15 C14.33 12.36 14.66 9.72 15 7 C16.32 7 17.64 7 19 7 C19 9.64 19 12.28 19 15 C19.99 15 20.98 15 22 15 C21.34 14.67 20.68 14.34 20 14 C20.33 11.36 20.66 8.72 21 6 C22.32 5.67 23.64 5.34 25 5 C27.02903697 9.05807395 26.0467948 14.60128877 26 19 C18.41 19 10.82 19 3 19 C2.01 21.475 2.01 21.475 1 24 C-5.24 25.32 -5.24 25.32 -8.375 24 C-10.71556207 21.11930822 -10.80447495 18.64980088 -11 15 C-10.67 14.01 -10.34 13.02 -10 12 C-8.68 12 -7.36 12 -6 12 C-5.67 14.64 -5.34 17.28 -5 20 C-4.01 20 -3.02 20 -2 20 C-1.97494385 19.42967041 -1.9498877 18.85934082 -1.92407227 18.27172852 C-1.80843451 15.70173843 -1.68556376 13.13214473 -1.5625 10.5625 C-1.52318359 9.66466797 -1.48386719 8.76683594 -1.44335938 7.84179688 C-1.40146484 6.98779297 -1.35957031 6.13378906 -1.31640625 5.25390625 C-1.26141968 4.06776733 -1.26141968 4.06776733 -1.20532227 2.85766602 C-1 1 -1 1 0 0 Z " fill="#FFFFFF" transform="translate(37,44)"/>
<path d="M0 0 C0.99 0 1.98 0 3 0 C4.54130495 3.0826099 4.22561558 6.30720931 4.25 9.6875 C4.270625 10.38294922 4.29125 11.07839844 4.3125 11.79492188 C4.35078031 16.91969885 3.28468375 20.41259553 1 25 C0.34 25 -0.32 25 -1 25 C-1.04125 25.721875 -1.0825 26.44375 -1.125 27.1875 C-2.41149984 31.32267807 -4.43746654 32.57747725 -8 35 C-9.485 34.505 -9.485 34.505 -11 34 C-10.34 34 -9.68 34 -9 34 C-9.33 33.01 -9.66 32.02 -10 31 C-10 31.66 -10 32.32 -10 33 C-11.32 33 -12.64 33 -14 33 C-14.33 33.66 -14.66 34.32 -15 35 C-15.33 34.67 -15.66 34.34 -16 34 C-17.11375 34 -18.2275 34 -19.375 34 C-23 34 -23 34 -26 33 C-25.34 31.35 -24.68 29.7 -24 28 C-22.68 28.66 -21.36 29.32 -20 30 C-19.67 28.68 -19.34 27.36 -19 26 C-18.34 26 -17.68 26 -17 26 C-17 25.34 -17 24.68 -17 24 C-17.99 24 -18.98 24 -20 24 C-20.33 22.68 -20.66 21.36 -21 20 C-20.071875 19.87625 -20.071875 19.87625 -19.125 19.75 C-16.87612831 19.20052771 -16.87612831 19.20052771 -15.875 17.25 C-15.441875 16.13625 -15.441875 16.13625 -15 15 C-14.62875 14.0925 -14.2575 13.185 -13.875 12.25 C-13.441875 11.13625 -13.441875 11.13625 -13 10 C-12.34 10 -11.68 10 -11 10 C-11 11.65 -11 13.3 -11 15 C-9.68 14.67 -8.36 14.34 -7 14 C-7.33 14.99 -7.66 15.98 -8 17 C-9.98 17 -11.96 17 -14 17 C-14 18.65 -14 20.3 -14 22 C-13.01 21.34 -12.02 20.68 -11 20 C-9.00492258 20.25334316 -7.00705419 20.51111053 -5.03515625 20.90625 C-2.51072783 21.02253845 -1.14763071 20.26839934 1 19 C1.09507063 12.56688704 1.15316726 6.34241995 0 0 Z " fill="#FFFFFF" transform="translate(277,26)"/>
<path d="M0 0 C2.125 0.375 2.125 0.375 4 1 C5.125 4.75 5.125 4.75 4 7 C5.051875 7.2475 6.10375 7.495 7.1875 7.75 C11.28280184 9.4397282 12.27846977 12.0817809 13.9375 16.0625 C16 21.53376206 16 21.53376206 16 24 C15.34 24 14.68 24 14 24 C10 16 10 16 9.0546875 13.796875 C8.06264496 11.655279 8.06264496 11.655279 5 11 C4.01 11.66 3.02 12.32 2 13 C-0.5625 12.8125 -0.5625 12.8125 -3 12 C-3.66 11.01 -4.32 10.02 -5 9 C-8.40364149 9.2917407 -10.06382675 10.04578875 -12.875 12.0625 C-15.12997521 15.17967161 -15.29487023 15.56266353 -14.875 19.125 C-14.09328474 22.88598532 -14.09328474 22.88598532 -13 26 C-14 28 -14 28 -16.3125 29.1875 C-19.92018108 30.27819428 -21.72094582 29.63952709 -25 28 C-25 26.35 -25 24.7 -25 23 C-24.01 23 -23.02 23 -22 23 C-22 21.35 -22 19.7 -22 18 C-21.34 18 -20.68 18 -20 18 C-19.7421875 17.42765625 -19.484375 16.8553125 -19.21875 16.265625 C-16.95320309 12.05403139 -13.93430502 8.71777649 -10 6 C-6.55264154 5.35362029 -3.45845435 5.48973624 0 6 C-0.66 4.68 -1.32 3.36 -2 2 C-1.34 1.34 -0.68 0.68 0 0 Z M1 2 C0.67 2.66 0.34 3.32 0 4 C0.99 3.67 1.98 3.34 3 3 C2.34 2.67 1.68 2.34 1 2 Z M-1 8 C-1.33 8.66 -1.66 9.32 -2 10 C-0.35 10 1.3 10 3 10 C1.68 9.34 0.36 8.68 -1 8 Z M-19 19 C-19 19.99 -19 20.98 -19 22 C-19.99 22.33 -20.98 22.66 -22 23 C-21.01 23.33 -20.02 23.66 -19 24 C-18.01 23.01 -17.02 22.02 -16 21 C-16.99 20.34 -17.98 19.68 -19 19 Z " fill="#FFFFFF" transform="translate(257,18)"/>
<path d="M0 0 C1.32 0 2.64 0 4 0 C4 4.62 4 9.24 4 14 C9.51024942 12.40740186 9.51024942 12.40740186 13 9 C13.33 8.67 13.66 8.34 14 8 C13.01 8 12.02 8 11 8 C11.33 6.68 11.66 5.36 12 4 C18.75 3.875 18.75 3.875 21 5 C21.96070434 7.88211302 22.10581883 9.69850044 22.0625 12.6875 C22.05347656 13.49574219 22.04445313 14.30398437 22.03515625 15.13671875 C22.02355469 15.75160156 22.01195313 16.36648437 22 17 C19.02930929 17.90789649 16.86810745 18.00449054 13.8125 17.5 C12.554375 17.335 11.29625 17.17 10 17 C9.67 17.33 9.34 17.66 9 18 C7.1875 18.1328125 7.1875 18.1328125 5 18.125 C4.278125 18.12757812 3.55625 18.13015625 2.8125 18.1328125 C1 18 1 18 0 17 C-0.07325168 14.13732433 -0.09238205 11.299281 -0.0625 8.4375 C-0.05798828 7.63119141 -0.05347656 6.82488281 -0.04882812 5.99414062 C-0.03700518 3.99606244 -0.01906914 1.99802217 0 0 Z M15 12 C14.67 12.66 14.34 13.32 14 14 C14.99 14 15.98 14 17 14 C17 13.34 17 12.68 17 12 C16.34 12 15.68 12 15 12 Z " fill="#FFFFFF" transform="translate(80,11)"/>
<path d="M0 0 C3.96 0 7.92 0 12 0 C12.66 1.32 13.32 2.64 14 4 C14.4125 3.34 14.825 2.68 15.25 2 C16.11625 1.01 16.11625 1.01 17 0 C18.32 0 19.64 0 21 0 C16.6 16.26666667 16.6 16.26666667 11 20 C8.8125 19.625 8.8125 19.625 7 19 C7 18.01 7 17.02 7 16 C8.32 15.67 9.64 15.34 11 15 C10.40075776 10.80530429 9.42500059 6.99000166 8 3 C4.87393036 4.60480784 4.87393036 4.60480784 4.48828125 6.9453125 C4.43027344 7.66460938 4.37226563 8.38390625 4.3125 9.125 C4.1578125 11.043125 4.1578125 11.043125 4 13 C2.68 13 1.36 13 0 13 C0 8.71 0 4.42 0 0 Z " fill="#FFFFFF" transform="translate(145,15)"/>
<path d="M0 0 C2.31 0.33 4.62 0.66 7 1 C7.73080266 2.97746603 8.39421747 4.98072489 9 7 C8.67 7.66 8.34 8.32 8 9 C9.32 9 10.64 9 12 9 C12 6.03 12 3.06 12 0 C14.475 0.495 14.475 0.495 17 1 C17.02687279 2.81242052 17.04633715 4.62495233 17.0625 6.4375 C17.07410156 7.44683594 17.08570313 8.45617187 17.09765625 9.49609375 C17 12 17 12 16 13 C14.55710213 13.09295815 13.10970215 13.11746513 11.66381836 13.11352539 C10.28249977 13.11341209 10.28249977 13.11341209 8.87327576 13.11329651 C7.87224319 13.10813522 6.87121063 13.10297394 5.83984375 13.09765625 C4.82024063 13.0962413 3.80063751 13.09482635 2.75013733 13.09336853 C-0.52077107 13.08775097 -3.79161213 13.0751955 -7.0625 13.0625 C-9.27408756 13.05748726 -11.48567618 13.05292396 -13.69726562 13.04882812 C-19.13153357 13.03777584 -24.56576197 13.02102063 -30 13 C-30 14.98 -30 16.96 -30 19 C-34.95 19 -39.9 19 -45 19 C-45 18.67 -45 18.34 -45 18 C-40.38 18 -35.76 18 -31 18 C-31 16.02 -31 14.04 -31 12 C-30.67 11.34 -30.34 10.68 -30 10 C-30.66 9.67 -31.32 9.34 -32 9 C-31.67 6.36 -31.34 3.72 -31 1 C-30.67 1 -30.34 1 -30 1 C-30 3.64 -30 6.28 -30 9 C-28.68 9.33 -27.36 9.66 -26 10 C-26.99 10 -27.98 10 -29 10 C-29 10.66 -29 11.32 -29 12 C-17.12 11.67 -5.24 11.34 7 11 C5.15811388 8.94729537 5.15811388 8.94729537 3 8 C3.33 6.68 3.66 5.36 4 4 C2.68 3.67 1.36 3.34 0 3 C1.32 3 2.64 3 4 3 C4 2.34 4 1.68 4 1 C2.68 0.67 1.36 0.34 0 0 Z " fill="#FFFFFF" transform="translate(175,50)"/>
<path d="M0 0 C0.99 0 1.98 0 3 0 C3 6.6 3 13.2 3 20 C-6 20 -6 20 -8.0625 18.375 C-9.27652573 15.29946814 -9.47842171 13.28060601 -9 10 C-7.25 7.625 -7.25 7.625 -5 6 C-3.68 6 -2.36 6 -1 6 C-1.020625 5.195625 -1.04125 4.39125 -1.0625 3.5625 C-1 1 -1 1 0 0 Z M-4 10 C-4.75243555 11.92638012 -4.75243555 11.92638012 -5 14 C-4.67 14.66 -4.34 15.32 -4 16 C-3.01 15.67 -2.02 15.34 -1 15 C-1 13.02 -1 11.04 -1 9 C-2.2236068 8.9254644 -2.2236068 8.9254644 -4 10 Z " fill="#FFFFFF" transform="translate(126,9)"/>
<path d="M0 0 C-0.33 1.32 -0.66 2.64 -1 4 C-2.32 4.33 -3.64 4.66 -5 5 C-4.01 5.53625 -3.02 6.0725 -2 6.625 C1 9 1 9 1.625 12.0625 C1 15 1 15 -0.625 16.875 C-3.56637697 18.26828383 -5.78333296 18.21931821 -9 18 C-9.33 16.35 -9.66 14.7 -10 13 C-8.02 13 -6.04 13 -4 13 C-5.93254772 10.9754262 -7.63158688 9.57894208 -10 8 C-10.5 5.0625 -10.5 5.0625 -10 2 C-6.55956398 -1.04724333 -4.32846371 -1.36037431 0 0 Z " fill="#FFFFFF" transform="translate(59,11)"/>
<path d="M0 0 C2.97 0 5.94 0 9 0 C9.99 0.99 10.98 1.98 12 3 C11.92597095 6.55339426 11.66774689 8.33225311 9.125 10.875 C7 12 7 12 4 12 C4 13.65 4 15.3 4 17 C2.68 17.33 1.36 17.66 0 18 C0 12.06 0 6.12 0 0 Z M4 3 C4 4.65 4 6.3 4 8 C4.99 8 5.98 8 7 8 C6.67 6.35 6.34 4.7 6 3 C5.34 3 4.68 3 4 3 Z " fill="#FFFFFF" transform="translate(62,11)"/>
<path d="M0 0 C0.33 0 0.66 0 1 0 C2.50947867 9.56609376 1.88820773 17.17745102 -3.6875 25.3125 C-8.49464331 31.20244044 -14.55486927 34.53756361 -22 36 C-24.69243856 36.1377085 -27.30055266 36.09471745 -30 36 C-30 35.34 -30 34.68 -30 34 C-27.69 33.34 -25.38 32.68 -23 32 C-23 31.67 -23 31.34 -23 31 C-20.69 31 -18.38 31 -16 31 C-16.66 30.67 -17.32 30.34 -18 30 C-18 29.34 -18 28.68 -18 28 C-16.68 28 -15.36 28 -14 28 C-14.33 27.01 -14.66 26.02 -15 25 C-14.01 25.33 -13.02 25.66 -12 26 C-12 26.99 -12 27.98 -12 29 C-11.030625 28.21625 -10.06125 27.4325 -9.0625 26.625 C-8.51722656 26.18414062 -7.97195313 25.74328125 -7.41015625 25.2890625 C-5.86733563 24.0333609 -5.86733563 24.0333609 -5 22 C-5.66 21.67 -6.32 21.34 -7 21 C-6.67 20.01 -6.34 19.02 -6 18 C-5.01 18 -4.02 18 -3 18 C-1.15433468 14.01606389 -0.63977171 10.55623317 -0.375 6.1875 C-0.30023438 5.02605469 -0.22546875 3.86460938 -0.1484375 2.66796875 C-0.09945313 1.78753906 -0.05046875 0.90710938 0 0 Z " fill="#FFFFFF" transform="translate(281,31)"/>
<path d="M0 0 C0.66 1.32 1.32 2.64 2 4 C1.39671875 4.42410156 0.7934375 4.84820313 0.171875 5.28515625 C-5.0358839 9.10697931 -8.24289518 12.15493778 -11 18 C-11.4125 18.804375 -11.825 19.60875 -12.25 20.4375 C-12.4975 20.953125 -12.745 21.46875 -13 22 C-13.33 21.34 -13.66 20.68 -14 20 C-16.29633824 23.44450737 -16.54016485 25.93812283 -17 30 C-17.33 30 -17.66 30 -18 30 C-18.60948967 21.92426188 -16.69706069 14.04620217 -11.625 7.5625 C-8.08709026 4.10882621 -4.70755171 1.5691839 0 0 Z " fill="#FFFFFF" transform="translate(245,13)"/>
<path d="M0 0 C1.60875 -0.061875 3.2175 -0.12375 4.875 -0.1875 C5.77992187 -0.22230469 6.68484375 -0.25710938 7.6171875 -0.29296875 C8.79667969 -0.14794922 8.79667969 -0.14794922 10 0 C12.20914 3.31371 12.22481553 4.3446021 12.125 8.1875 C12.10695313 9.08855469 12.08890625 9.98960938 12.0703125 10.91796875 C12.03550781 11.94857422 12.03550781 11.94857422 12 13 C10.0625 13.5625 10.0625 13.5625 8 14 C7 13 7 13 6.90234375 10.93359375 C6.91974609 9.69802734 6.91974609 9.69802734 6.9375 8.4375 C6.94652344 7.61121094 6.95554687 6.78492188 6.96484375 5.93359375 C6.97644531 5.29550781 6.98804687 4.65742188 7 4 C6.01 4.495 6.01 4.495 5 5 C4.53476937 6.89533342 4.53476937 6.89533342 4.375 9.0625 C4.189375 11.0115625 4.189375 11.0115625 4 13 C2.68 13 1.36 13 0 13 C0 8.71 0 4.42 0 0 Z " fill="#FFFFFF" transform="translate(104,15)"/>
<path d="M0 0 C6.46994034 -0.36622304 6.46994034 -0.36622304 8.71875 1.1875 C10.44334597 3.62717234 10.30267769 5.23127272 10.1875 8.1875 C10.16042969 9.08855469 10.13335937 9.98960938 10.10546875 10.91796875 C10.07066406 11.60503906 10.03585938 12.29210938 10 13 C6.08263419 14.1700097 3.02040985 13.69584017 -1 13 C-1.6875 10.6875 -1.6875 10.6875 -2 8 C-0.8125 6.1875 -0.8125 6.1875 1 5 C2.32 5 3.64 5 5 5 C5 4.34 5 3.68 5 3 C3.02 3.33 1.04 3.66 -1 4 C-0.67 2.68 -0.34 1.36 0 0 Z M3 8 C2.67 8.66 2.34 9.32 2 10 C2.99 10 3.98 10 5 10 C5 9.34 5 8.68 5 8 C4.34 8 3.68 8 3 8 Z " fill="#FFFFFF" transform="translate(133,15)"/>
<path d="M0 0 C1.32 0.33 2.64 0.66 4 1 C4 6.94 4 12.88 4 19 C-1.94 19 -7.88 19 -14 19 C-14 18.67 -14 18.34 -14 18 C-10.7 17.67 -7.4 17.34 -4 17 C-4.33 16.34 -4.66 15.68 -5 15 C-3.68 15 -2.36 15 -1 15 C-1.01160156 14.00097656 -1.02320312 13.00195312 -1.03515625 11.97265625 C-1.04417969 10.68230469 -1.05320312 9.39195313 -1.0625 8.0625 C-1.07410156 6.77472656 -1.08570312 5.48695312 -1.09765625 4.16015625 C-1 1 -1 1 0 0 Z " fill="#FFFFFF" transform="translate(107,44)"/>
<path d="M0 0 C0.66 0 1.32 0 2 0 C2 1.98 2 3.96 2 6 C2.66 5.67 3.32 5.34 4 5 C5.99960012 4.960008 8.00047242 4.95653201 10 5 C10 5.66 10 6.32 10 7 C8.68 7 7.36 7 6 7 C5.34 8.65 4.68 10.3 4 12 C6.31 12.33 8.62 12.66 11 13 C11.33 12.34 11.66 11.68 12 11 C12.103125 11.639375 12.20625 12.27875 12.3125 12.9375 C12.539375 13.618125 12.76625 14.29875 13 15 C13.99 15.33 14.98 15.66 16 16 C13.52076199 16.02685095 11.0418116 16.04676547 8.5625 16.0625 C7.85544922 16.07087891 7.14839844 16.07925781 6.41992188 16.08789062 C4.61306441 16.09653588 2.80612397 16.05220011 1 16 C0 15 0 15 -0.09765625 11.62109375 C-0.09098369 10.22652923 -0.07902532 8.83198257 -0.0625 7.4375 C-0.05798828 6.72658203 -0.05347656 6.01566406 -0.04882812 5.28320312 C-0.03700864 3.52209987 -0.01907263 1.76103964 0 0 Z " fill="#FFFFFF" transform="translate(169,46)"/>
<path d="M0 0 C0.765625 1.77734375 0.765625 1.77734375 1.25 3.9375 C1.42015625 4.64777344 1.5903125 5.35804687 1.765625 6.08984375 C2 8 2 8 1 10 C-1.59757372 11.33388921 -3.26260643 12.10534194 -6.1875 11.6875 C-8 11 -8 11 -10 10 C-10 8.35 -10 6.7 -10 5 C-9.01 5 -8.02 5 -7 5 C-7 3.35 -7 1.7 -7 0 C-3.98968256 -0.93423645 -3.13349732 -1.04449911 0 0 Z M-4 1 C-4 1.99 -4 2.98 -4 4 C-4.99 4.33 -5.98 4.66 -7 5 C-6.01 5.33 -5.02 5.66 -4 6 C-3.01 5.01 -2.02 4.02 -1 3 C-1.99 2.34 -2.98 1.68 -4 1 Z " fill="#FFFFFF" transform="translate(242,36)"/>
<path d="M0 0 C2.21317199 2.21317199 2.30919261 3.06406858 3 6 C3.64891038 7.34206465 4.3134765 8.67678131 5 10 C-4.05638678 10.15178302 -12.97582223 9.69037426 -22 9 C-21.67 7.68 -21.34 6.36 -21 5 C-19.35 5.33 -17.7 5.66 -16 6 C-16 6.66 -16 7.32 -16 8 C-13.69 8 -11.38 8 -9 8 C-8.67 6.35 -8.34 4.7 -8 3 C-7.34 3 -6.68 3 -6 3 C-6 4.65 -6 6.3 -6 8 C-4.02 8 -2.04 8 0 8 C-0.185625 6.865625 -0.37125 5.73125 -0.5625 4.5625 C-0.706875 3.386875 -0.85125 2.21125 -1 1 C-0.67 0.67 -0.34 0.34 0 0 Z " fill="#FFFFFF" transform="translate(99,52)"/>
<path d="M0 0 C1.32 0 2.64 0 4 0 C4 6.27 4 12.54 4 19 C2.68 19 1.36 19 0 19 C0 12.73 0 6.46 0 0 Z " fill="#FFFFFF" transform="translate(114,44)"/>
<path d="M0 0 C0.33 0.66 0.66 1.32 1 2 C4.465 1.505 4.465 1.505 8 1 C8 5 8 5 6.5 6.8125 C2.75927597 8.58934391 0.06724438 7.64559435 -4 7 C-4.99 7.33 -5.98 7.66 -7 8 C-7 6.35 -7 4.7 -7 3 C-3.25 1.875 -3.25 1.875 -1 3 C-0.67 2.01 -0.34 1.02 0 0 Z " fill="#FFFFFF" transform="translate(270,40)"/>
<path d="M0 0 C2.97 0 5.94 0 9 0 C9.66 0.99 10.32 1.98 11 3 C10.34 3 9.68 3 9 3 C8.34 4.32 7.68 5.64 7 7 C6.67 6.01 6.34 5.02 6 4 C5.34 3.67 4.68 3.34 4 3 C4 4.65 4 6.3 4 8 C3.67 8 3.34 8 3 8 C3 5.69 3 3.38 3 1 C2.34 1 1.68 1 1 1 C1 5.95 1 10.9 1 16 C1.66 16 2.32 16 3 16 C3.33 14.68 3.66 13.36 4 12 C4 13.65 4 15.3 4 17 C2.68 17.33 1.36 17.66 0 18 C0 12.06 0 6.12 0 0 Z " fill="#FFFFFF" transform="translate(62,11)"/>
<path d="M0 0 C6.75 -0.125 6.75 -0.125 9 1 C9.96070434 3.88211302 10.10581883 5.69850044 10.0625 8.6875 C10.05347656 9.49574219 10.04445313 10.30398437 10.03515625 11.13671875 C10.02355469 11.75160156 10.01195313 12.36648437 10 13 C6.90226756 13.84062397 4.21667249 14.08935201 1 14 C1.66 13.01 2.32 12.02 3 11 C5.97 11.495 5.97 11.495 9 12 C8.67 8.7 8.34 5.4 8 2 C7.34 2 6.68 2 6 2 C6 2.66 6 3.32 6 4 C3.69 4 1.38 4 -1 4 C-0.67 2.68 -0.34 1.36 0 0 Z " fill="#FFFFFF" transform="translate(92,15)"/>
<path d="M0 0 C0.66 0 1.32 0 2 0 C1.979375 1.093125 1.95875 2.18625 1.9375 3.3125 C1.81455548 6.94384191 1.81455548 6.94384191 3 10 C2.72428861 12.00875442 2.39764263 14.01178687 2 16 C-0.29109597 16.08075665 -2.58299267 16.13907731 -4.875 16.1875 C-6.78925781 16.23970703 -6.78925781 16.23970703 -8.7421875 16.29296875 C-9.81726563 16.19628906 -10.89234375 16.09960938 -12 16 C-12.66 15.01 -13.32 14.02 -14 13 C-13.360625 13.165 -12.72125 13.33 -12.0625 13.5 C-8.02413348 14.15932515 -4.08192742 14.08003779 0 14 C-0.165 13.34 -0.33 12.68 -0.5 12 C-1.12605686 8.24365885 -1.12696208 4.80886246 -1 1 C-0.67 0.67 -0.34 0.34 0 0 Z " fill="#FFFFFF" transform="translate(142,52)"/>
<path d="M0 0 C0.33 1.32 0.66 2.64 1 4 C-1.475 3.505 -1.475 3.505 -4 3 C-4.33 3.66 -4.66 4.32 -5 5 C-5.7425 5.103125 -6.485 5.20625 -7.25 5.3125 C-10.99046837 6.24761709 -12.56524306 8.07829168 -15 11 C-15 11.99 -15 12.98 -15 14 C-16.65 14 -18.3 14 -20 14 C-17.75323084 9.01217247 -14.50841539 5.11436589 -10 2 C-6.55264154 1.35362029 -3.45845435 1.48973624 0 2 C0 1.34 0 0.68 0 0 Z " fill="#FFFFFF" transform="translate(257,22)"/>
<path d="M0 0 C1.3921875 0.2784375 1.3921875 0.2784375 2.8125 0.5625 C3.534375 0.706875 4.25625 0.85125 5 1 C4.67 1.99 4.34 2.98 4 4 C4.99 4 5.98 4 7 4 C7 4.66 7 5.32 7 6 C6.34 6 5.68 6 5 6 C4.8453125 6.9590625 4.8453125 6.9590625 4.6875 7.9375 C4.460625 8.618125 4.23375 9.29875 4 10 C3.01 10.33 2.02 10.66 1 11 C1.66 8.36 2.32 5.72 3 3 C2.236875 2.855625 1.47375 2.71125 0.6875 2.5625 C-2 2 -2 2 -5 1 C-5 1.66 -5 2.32 -5 3 C-6.65 3 -8.3 3 -10 3 C-10.33 2.34 -10.66 1.68 -11 1 C-6.82454348 -0.65076188 -4.32841363 -1.22083461 0 0 Z " fill="#FFFFFF" transform="translate(253,46)"/>
<path d="M0 0 C1.32 0.33 2.64 0.66 4 1 C3.835 1.94875 3.67 2.8975 3.5 3.875 C2.81458208 8.5763877 2.91416559 13.26003286 3 18 C2.01 18 1.02 18 0 18 C0 12.06 0 6.12 0 0 Z " fill="#FFFFFF" transform="translate(37,44)"/>
<path d="M0 0 C6.46994034 -0.36622304 6.46994034 -0.36622304 8.71875 1.1875 C10.44334597 3.62717234 10.30267769 5.23127272 10.1875 8.1875 C10.16042969 9.08855469 10.13335937 9.98960938 10.10546875 10.91796875 C10.07066406 11.60503906 10.03585938 12.29210938 10 13 C8.68 13.33 7.36 13.66 6 14 C6 13.34 6 12.68 6 12 C6.99 12 7.98 12 9 12 C8.34 9.03 7.68 6.06 7 3 C6.236875 3.165 5.47375 3.33 4.6875 3.5 C2 4 2 4 -1 4 C-0.67 2.68 -0.34 1.36 0 0 Z " fill="#FFFFFF" transform="translate(133,15)"/>
<path d="M0 0 C0.56203125 0.32742187 1.1240625 0.65484375 1.703125 0.9921875 C4.26859964 2.11785494 5.96842277 2.2068111 8.75 2.125 C9.94882812 2.09792969 9.94882812 2.09792969 11.171875 2.0703125 C12.07679688 2.03550781 12.07679688 2.03550781 13 2 C13.33 2.99 13.66 3.98 14 5 C12.68 5 11.36 5 10 5 C9.67 5.66 9.34 6.32 9 7 C8.67 6.67 8.34 6.34 8 6 C6.88625 6 5.7725 6 4.625 6 C1 6 1 6 -2 5 C-1.34 3.35 -0.68 1.7 0 0 Z " fill="#FFFFFF" transform="translate(253,54)"/>
<path d="M0 0 C0.99 0 1.98 0 3 0 C3 5.28 3 10.56 3 16 C2.01 16.33 1.02 16.66 0 17 C0 11.39 0 5.78 0 0 Z " fill="#FFFFFF" transform="translate(66,45)"/>
<path d="M0 0 C1.9375 2.5 1.9375 2.5 3 5 C2.01 6.485 2.01 6.485 1 8 C0.67 6.35 0.34 4.7 0 3 C-2.64 2.67 -5.28 2.34 -8 2 C-8 2.99 -8 3.98 -8 5 C-7.01 5 -6.02 5 -5 5 C-3.3125 6.5 -3.3125 6.5 -2 8 C-7.625 8.25 -7.625 8.25 -11 6 C-10.6875 4.125 -10.6875 4.125 -10 2 C-6.28500878 -0.47666082 -4.39092112 -0.54886514 0 0 Z " fill="#FFFFFF" transform="translate(84,50)"/>
<path d="M0 0 C0.33 0 0.66 0 1 0 C1 2.64 1 5.28 1 8 C4.465 9.485 4.465 9.485 8 11 C4.77208445 13.1519437 3.71599191 13.20086443 0 13 C-0.66 14.32 -1.32 15.64 -2 17 C-2 15.35 -2 13.7 -2 12 C-1.34 12 -0.68 12 0 12 C-0.33 11.34 -0.66 10.68 -1 10 C-1.1328125 8.125 -1.1328125 8.125 -1.125 6 C-1.12886719 4.948125 -1.12886719 4.948125 -1.1328125 3.875 C-1 2 -1 2 0 0 Z " fill="#FFFFFF" transform="translate(40,50)"/>
<path d="M0 0 C0.33 0 0.66 0 1 0 C1 3.96 1 7.92 1 12 C0.34 11.67 -0.32 11.34 -1 11 C-0.67 10.34 -0.34 9.68 0 9 C-2.31 8.67 -4.62 8.34 -7 8 C-7.33 7.01 -7.66 6.02 -8 5 C-7.01 5 -6.02 5 -5 5 C-4.67 3.68 -4.34 2.36 -4 1 C-4 2.32 -4 3.64 -4 5 C-2.68 5 -1.36 5 0 5 C0 3.35 0 1.7 0 0 Z " fill="#FFFFFF" transform="translate(141,54)"/>
<path d="M0 0 C0.99 0 1.98 0 3 0 C4.59412284 3.18824568 4.10174735 6.62896662 4.0625 10.125 C4.05798828 10.87910156 4.05347656 11.63320313 4.04882812 12.41015625 C4.03703499 14.27347127 4.01909942 16.13674555 4 18 C1.09472388 15.09472388 1.28735681 11.78900975 0.875 7.875 C0.78863281 7.12089844 0.70226562 6.36679687 0.61328125 5.58984375 C0.40110739 3.72742873 0.19954237 1.86381069 0 0 Z " fill="#FFFFFF" transform="translate(277,26)"/>
<path d="M0 0 C2.625 0.9375 2.625 0.9375 5 2 C4.34 3.98 3.68 5.96 3 8 C1.68 8 0.36 8 -1 8 C-1.33 5.69 -1.66 3.38 -2 1 C-1.34 0.67 -0.68 0.34 0 0 Z " fill="#FFFFFF" transform="translate(248,10)"/>
<path d="M0 0 C0.66 1.32 1.32 2.64 2 4 C-0.8612164 6.33136151 -3.5435235 7.72656129 -7 9 C-7.99 9.495 -7.99 9.495 -9 10 C-8.625 8.0625 -8.625 8.0625 -8 6 C-7.34 5.67 -6.68 5.34 -6 5 C-5.67 4.01 -5.34 3.02 -5 2 C-2.4375 0.8125 -2.4375 0.8125 0 0 Z " fill="#FFFFFF" transform="translate(245,13)"/>
<path d="M0 0 C1.32 0 2.64 0 4 0 C4.33 3.3 4.66 6.6 5 10 C2.03 9.505 2.03 9.505 -1 9 C-0.67 6.03 -0.34 3.06 0 0 Z " fill="#FFFFFF" transform="translate(45,52)"/>
<path d="M0 0 C-0.33 1.32 -0.66 2.64 -1 4 C-2.98 4.33 -4.96 4.66 -7 5 C-7.33 4.34 -7.66 3.68 -8 3 C-8.33 4.65 -8.66 6.3 -9 8 C-9.33 8 -9.66 8 -10 8 C-10.3125 5.1875 -10.3125 5.1875 -10 2 C-6.55956398 -1.04724333 -4.32846371 -1.36037431 0 0 Z " fill="#FFFFFF" transform="translate(59,11)"/>
<path d="M0 0 C0.73046875 1.84765625 0.73046875 1.84765625 1.1875 4.0625 C1.34605469 4.79597656 1.50460938 5.52945313 1.66796875 6.28515625 C1.77753906 6.85105469 1.88710937 7.41695312 2 8 C0.02 7.34 -1.96 6.68 -4 6 C-3.34 5.01 -2.68 4.02 -2 3 C-2.33 2.67 -2.66 2.34 -3 2 C-3.474375 2.495 -3.94875 2.99 -4.4375 3.5 C-6 5 -6 5 -7 5 C-7 3.35 -7 1.7 -7 0 C-3.98968256 -0.93423645 -3.13349732 -1.04449911 0 0 Z " fill="#FFFFFF" transform="translate(242,36)"/>
<path d="M0 0 C0.66 0 1.32 0 2 0 C1.88512252 1.58409994 1.75765492 3.16728963 1.625 4.75 C1.55539063 5.63171875 1.48578125 6.5134375 1.4140625 7.421875 C1 10 1 10 -1 14 C-1.66 10.7 -2.32 7.4 -3 4 C-2.34 3.67 -1.68 3.34 -1 3 C-0.67 2.01 -0.34 1.02 0 0 Z " fill="#FFFFFF" transform="translate(245,32)"/>
<path d="M0 0 C1.32 0.33 2.64 0.66 4 1 C3.01 1.33 2.02 1.66 1 2 C1 4.97 1 7.94 1 11 C1.66 11 2.32 11 3 11 C3 8.69 3 6.38 3 4 C3.66 4.33 4.32 4.66 5 5 C4.67 7.64 4.34 10.28 4 13 C2.68 13 1.36 13 0 13 C0 8.71 0 4.42 0 0 Z " fill="#FFFFFF" transform="translate(145,15)"/>
<path d="M0 0 C0.66 0 1.32 0 2 0 C2 1.65 2 3.3 2 5 C3.32 4.67 4.64 4.34 6 4 C5.67 4.99 5.34 5.98 5 7 C4.071875 7.144375 3.14375 7.28875 2.1875 7.4375 C-1.00725111 7.92100111 -1.00725111 7.92100111 -4 9 C-3.71125 8.443125 -3.4225 7.88625 -3.125 7.3125 C-1.9586747 4.91505355 -0.9660119 2.48403061 0 0 Z " fill="#FFFFFF" transform="translate(264,36)"/>
<path d="M0 0 C0.66 0 1.32 0 2 0 C2.19601608 1.74906659 2.38147403 3.49931846 2.5625 5.25 C2.66691406 6.22453125 2.77132812 7.1990625 2.87890625 8.203125 C2.98974468 10.7631352 2.77738092 12.58148159 2 15 C1.34 15 0.68 15 0 15 C0 10.05 0 5.1 0 0 Z " fill="#FFFFFF" transform="translate(63,12)"/>
<path d="M0 0 C0 0.99 0 1.98 0 3 C-0.66 3 -1.32 3 -2 3 C-2 3.99 -2 4.98 -2 6 C-1.34 5.34 -0.68 4.68 0 4 C0.99 4.33 1.98 4.66 3 5 C0.6875 7.5 0.6875 7.5 -2 10 C-2.99 10 -3.98 10 -5 10 C-4.67 9.01 -4.34 8.02 -4 7 C-4.66 6.67 -5.32 6.34 -6 6 C-4 4 -2 2 0 0 Z " fill="#FFFFFF" transform="translate(239,16)"/>
<path d="M0 0 C1.32 0.33 2.64 0.66 4 1 C3.01 1 2.02 1 1 1 C1 4.3 1 7.6 1 11 C1.66 11 2.32 11 3 11 C3 8.69 3 6.38 3 4 C3.66 4.33 4.32 4.66 5 5 C4.67 7.64 4.34 10.28 4 13 C2.68 13 1.36 13 0 13 C0 8.71 0 4.42 0 0 Z " fill="#FFFFFF" transform="translate(104,15)"/>
<path d="M0 0 C0 0.99 0 1.98 0 3 C-1.75 4.75 -1.75 4.75 -4 6 C-6.25 5.6875 -6.25 5.6875 -8 5 C-7.67 3.68 -7.34 2.36 -7 1 C-2.25 0 -2.25 0 0 0 Z " fill="#FFFFFF" transform="translate(278,42)"/>
<path d="M0 0 C3.51463012 1.89980007 5.89550678 3.56635317 8 7 C8 7.66 8 8.32 8 9 C6 9 6 9 3.875 7 C3.25625 6.34 2.6375 5.68 2 5 C1.67 5.66 1.34 6.32 1 7 C-0.32 5.68 -1.64 4.36 -3 3 C-1.68 3 -0.36 3 1 3 C0.67 2.01 0.34 1.02 0 0 Z " fill="#FFFFFF" transform="translate(271,17)"/>
<path d="M0 0 C0 0.99 0 1.98 0 3 C-1.32 3 -2.64 3 -4 3 C-4 5.31 -4 7.62 -4 10 C-4.66 10 -5.32 10 -6 10 C-6 7.03 -6 4.06 -6 1 C-4 0 -4 0 0 0 Z " fill="#FFFFFF" transform="translate(152,16)"/>
<path d="M0 0 C2.31 0 4.62 0 7 0 C7.33 1.32 7.66 2.64 8 4 C5.36 4 2.72 4 0 4 C0 2.68 0 1.36 0 0 Z " fill="#FFFFFF" transform="translate(147,64)"/>
<path d="M0 0 C0.12375 0.639375 0.2475 1.27875 0.375 1.9375 C0.684375 2.9584375 0.684375 2.9584375 1 4 C1.66 4.33 2.32 4.66 3 5 C0.36 5.33 -2.28 5.66 -5 6 C-5.33 4.68 -5.66 3.36 -6 2 C-4.02 1.34 -2.04 0.68 0 0 Z " fill="#FFFFFF" transform="translate(262,44)"/>
<path d="M0 0 C2.31 0 4.62 0 7 0 C7.33 1.32 7.66 2.64 8 4 C5.36 4 2.72 4 0 4 C0 2.68 0 1.36 0 0 Z " fill="#FFFFFF" transform="translate(185,45)"/>
<path d="M0 0 C0.66 0 1.32 0 2 0 C3.1577506 3.47325181 3.06866652 6.36067448 3 10 C1.68 9.67 0.36 9.34 -1 9 C-1.125 2.25 -1.125 2.25 0 0 Z " fill="#FFFFFF" transform="translate(98,17)"/>
<path d="M0 0 C2.31 0.33 4.62 0.66 7 1 C4 3 4 3 2 3 C2 5.31 2 7.62 2 10 C1.34 10 0.68 10 0 10 C0 6.7 0 3.4 0 0 Z " fill="#FFFFFF" transform="translate(105,16)"/>
<path d="M0 0 C1.5 1.0625 1.5 1.0625 3 3 C3.1875 6.6875 3.1875 6.6875 3 10 C1.68 9.67 0.36 9.34 -1 9 C-1.125 2.25 -1.125 2.25 0 0 Z " fill="#FFFFFF" transform="translate(139,17)"/>
<path d="M0 0 C5.94 0.99 5.94 0.99 12 2 C8.25631258 3.87184371 7.1599209 4.23999767 3.25 4.125 C2.45078125 4.10695313 1.6515625 4.08890625 0.828125 4.0703125 C0.22484375 4.04710937 -0.3784375 4.02390625 -1 4 C-0.67 2.68 -0.34 1.36 0 0 Z " fill="#FFFFFF" transform="translate(253,12)"/>
<path d="M0 0 C2.31 0 4.62 0 7 0 C7 1.32 7 2.64 7 4 C4.36 4 1.72 4 -1 4 C-0.67 2.68 -0.34 1.36 0 0 Z " fill="#FFFFFF" transform="translate(136,45)"/>
<path d="M0 0 C-0.33 1.32 -0.66 2.64 -1 4 C-3.64 4 -6.28 4 -9 4 C-6.56225426 0.2214941 -6.56225426 0.2214941 -3.9375 -0.8125 C-2 -1 -2 -1 0 0 Z " fill="#FFFFFF" transform="translate(90,25)"/>
<path d="M0 0 C1.65 0 3.3 0 5 0 C5.33 0.99 5.66 1.98 6 3 C5.01 3.495 5.01 3.495 4 4 C3.53348793 6.12576782 3.53348793 6.12576782 3.375 8.5625 C3.30023438 9.38878906 3.22546875 10.21507812 3.1484375 11.06640625 C3.09945312 11.70449219 3.05046875 12.34257812 3 13 C2.67 13 2.34 13 2 13 C2 10.03 2 7.06 2 4 C1.34 3.67 0.68 3.34 0 3 C0 2.01 0 1.02 0 0 Z " fill="#FFFFFF" transform="translate(109,15)"/>
<path d="M0 0 C0.99 0 1.98 0 3 0 C3 2.64 3 5.28 3 8 C2.01 8.33 1.02 8.66 0 9 C0 6.03 0 3.06 0 0 Z " fill="#FFFFFF" transform="translate(52,52)"/>
<path d="M0 0 C0.99 0.66 1.98 1.32 3 2 C0.36 1.67 -2.28 1.34 -5 1 C-5 1.66 -5 2.32 -5 3 C-6.65 3 -8.3 3 -10 3 C-10.33 2.34 -10.66 1.68 -11 1 C-6.89479526 -0.62298792 -4.25435455 -1.37979067 0 0 Z " fill="#FFFFFF" transform="translate(253,46)"/>
<path d="M0 0 C3.3 0.33 6.6 0.66 10 1 C6.09987886 3.92509086 4.61691161 4.47535095 0 5 C0 3.35 0 1.7 0 0 Z " fill="#FFFFFF" transform="translate(232,41)"/>
<path d="M0 0 C0.99 0 1.98 0 3 0 C3 1.98 3 3.96 3 6 C1.68 6.33 0.36 6.66 -1 7 C-1.625 5.1875 -1.625 5.1875 -2 3 C-1.34 2.01 -0.68 1.02 0 0 Z " fill="#FFFFFF" transform="translate(232,23)"/>
<path d="M0 0 C0.66 0.33 1.32 0.66 2 1 C2.125 6.75 2.125 6.75 1 9 C0.01 8.67 -0.98 8.34 -2 8 C-1.47731534 5.23723823 -0.89130413 2.6739124 0 0 Z " fill="#FFFFFF" transform="translate(230,32)"/>
<path d="M0 0 C1.32 0 2.64 0 4 0 C4 2.64 4 5.28 4 8 C3.67 8 3.34 8 3 8 C3 6.35 3 4.7 3 3 C0.66924071 3.95865509 0.66924071 3.95865509 -1 7 C-0.67 4.69 -0.34 2.38 0 0 Z " fill="#FFFFFF" transform="translate(27,56)"/>
<path d="M0 0 C0.66 0 1.32 0 2 0 C2.33 3.3 2.66 6.6 3 10 C2.01 10 1.02 10 0 10 C0 6.7 0 3.4 0 0 Z " fill="#FFFFFF" transform="translate(37,52)"/>
<path d="M0 0 C0.66 0 1.32 0 2 0 C2 3.3 2 6.6 2 10 C1.01 10 0.02 10 -1 10 C-0.67 6.7 -0.34 3.4 0 0 Z " fill="#FFFFFF" transform="translate(151,51)"/>
<path d="M0 0 C0.33 0.66 0.66 1.32 1 2 C1.66 2.33 2.32 2.66 3 3 C0 5 0 5 -2.1875 4.625 C-2.785625 4.41875 -3.38375 4.2125 -4 4 C-4 3.01 -4 2.02 -4 1 C-2.68 0.67 -1.36 0.34 0 0 Z " fill="#FFFFFF" transform="translate(156,30)"/>
<path d="M0 0 C0.33 1.32 0.66 2.64 1 4 C1.66 4 2.32 4 3 4 C2.67 4.99 2.34 5.98 2 7 C1.01 7 0.02 7 -1 7 C-1.625 4.625 -1.625 4.625 -2 2 C-1.34 1.34 -0.68 0.68 0 0 Z " fill="#FFFFFF" transform="translate(92,21)"/>
<path d="M0 0 C1.98 0 3.96 0 6 0 C6 0.66 6 1.32 6 2 C4.68 2 3.36 2 2 2 C1.67 2.99 1.34 3.98 1 5 C0.34 4.67 -0.32 4.34 -1 4 C-0.67 2.68 -0.34 1.36 0 0 Z " fill="#FFFFFF" transform="translate(173,51)"/>
<path d="M0 0 C0.99 0 1.98 0 3 0 C3 0.99 3 1.98 3 3 C3.99 3.33 4.98 3.66 6 4 C6 4.66 6 5.32 6 6 C4.35 5.67 2.7 5.34 1 5 C0.67 3.35 0.34 1.7 0 0 Z " fill="#FFFFFF" transform="translate(253,25)"/>
<path d="M0 0 C4.67692308 1.47692308 4.67692308 1.47692308 6.3125 4.125 C6.539375 4.74375 6.76625 5.3625 7 6 C4.03 5.505 4.03 5.505 1 5 C0.67 3.35 0.34 1.7 0 0 Z " fill="#FFFFFF" transform="translate(266,15)"/>
<path d="M0 0 C1.32 0.33 2.64 0.66 4 1 C4.33 2.65 4.66 4.3 5 6 C4.01 6.495 4.01 6.495 3 7 C0 3.375 0 3.375 0 0 Z " fill="#FFFFFF" transform="translate(231,51)"/>
<path d="M0 0 C0.66 0 1.32 0 2 0 C4 3 4 3 4 7 C3.01 6.67 2.02 6.34 1 6 C0.67 4.02 0.34 2.04 0 0 Z " fill="#FFFFFF" transform="translate(55,18)"/>
<path d="M0 0 C2.0625 0.4375 2.0625 0.4375 4 1 C4.33 2.32 4.66 3.64 5 5 C4.67 4.34 4.34 3.68 4 3 C2.35 3.33 0.7 3.66 -1 4 C-1 1 -1 1 0 0 Z " fill="#FFFFFF" transform="translate(257,18)"/>
<path d="M0 0 C1.32 0.33 2.64 0.66 4 1 C4 1.99 4 2.98 4 4 C3.01 4.33 2.02 4.66 1 5 C0.67 3.35 0.34 1.7 0 0 Z " fill="#FFFFFF" transform="translate(158,64)"/>
<path d="M0 0 C1.98 0.495 1.98 0.495 4 1 C3.67 1.99 3.34 2.98 3 4 C1.68 3.67 0.36 3.34 -1 3 C-0.67 2.01 -0.34 1.02 0 0 Z " fill="#FFFFFF" transform="translate(79,45)"/>
<path d="M0 0 C0.99 0.33 1.98 0.66 3 1 C2.67 1.66 2.34 2.32 2 3 C1.01 2.67 0.02 2.34 -1 2 C-0.67 1.34 -0.34 0.68 0 0 Z " fill="#FFFFFF" transform="translate(238,25)"/>
<path d="M0 0 C0.66 0.33 1.32 0.66 2 1 C2 1.66 2 2.32 2 3 C1.01 3 0.02 3 -1 3 C-0.67 2.01 -0.34 1.02 0 0 Z " fill="#FFFFFF" transform="translate(272,28)"/>
<path d="M0 0 C0.33 0 0.66 0 1 0 C1 1.65 1 3.3 1 5 C0.67 5 0.34 5 0 5 C0 3.35 0 1.7 0 0 Z " fill="#FFFFFF" transform="translate(50,53)"/>
<path d="M0 0 C1 4 1 4 1 4 Z " fill="#FFFFFF" transform="translate(64,54)"/>
<path d="M0 0 C0.66 0 1.32 0 2 0 C2 0.66 2 1.32 2 2 C1.34 2 0.68 2 0 2 C0 1.34 0 0.68 0 0 Z " fill="#FFFFFF" transform="translate(248,20)"/>
<path d="M0 0 C0.33 0.66 0.66 1.32 1 2 C0.34 1.67 -0.32 1.34 -1 1 C-0.67 0.67 -0.34 0.34 0 0 Z " fill="#FFFFFF" transform="translate(243,32)"/>
<path d="" fill="#FFFFFF" transform="translate(0,0)"/>
<path d="" fill="#FFFFFF" transform="translate(0,0)"/>
<path d="" fill="#FFFFFF" transform="translate(0,0)"/>
<path d="" fill="#FFFFFF" transform="translate(0,0)"/>
<path d="" fill="#FFFFFF" transform="translate(0,0)"/>
<path d="" fill="#FFFFFF" transform="translate(0,0)"/>
<path d="" fill="#FFFFFF" transform="translate(0,0)"/>
<path d="" fill="#FFFFFF" transform="translate(0,0)"/>
</svg>
